<?xml version="1.0" encoding="UTF-8" standalone="no"?>
<!-- Generator: Adobe Illustrator 24.0.1, SVG Export Plug-In . SVG Version: 6.00 Build 0)  -->

<svg
   version="1.1"
   id="Layer_1"
   x="0px"
   y="0px"
   width="1000px"
   height="1000px"
   viewBox="0 0 1000 1000"
   style="enable-background:new 0 0 1000 1000;"
   xml:space="preserve"
   sodipodi:docname="initEdit.svg"
   inkscape:version="1.2.1 (9c6d41e410, 2022-07-14)"
   xmlns:inkscape="http://www.inkscape.org/namespaces/inkscape"
   xmlns:sodipodi="http://sodipodi.sourceforge.net/DTD/sodipodi-0.dtd"
   xmlns="http://www.w3.org/2000/svg"
   xmlns:svg="http://www.w3.org/2000/svg"><defs
   id="defs993">







	
	
	
	























	


	















</defs><sodipodi:namedview
   id="namedview991"
   pagecolor="#ffffff"
   bordercolor="#000000"
   borderopacity="0.25"
   inkscape:showpageshadow="2"
   inkscape:pageopacity="0.0"
   inkscape:pagecheckerboard="0"
   inkscape:deskcolor="#d1d1d1"
   showgrid="false"
   inkscape:zoom="0.57558492"
   inkscape:cx="469.95672"
   inkscape:cy="416.96714"
   inkscape:window-width="1091"
   inkscape:window-height="847"
   inkscape:window-x="1289"
   inkscape:window-y="321"
   inkscape:window-maximized="0"
   inkscape:current-layer="illustration" />
<g
   id="illustration"
   style="fill:#000000">
	
	
	
	
	
	
	
	
	
	
	
	
	
	
	
	
	
	
	
	
	
	
	
	
	
	
	
	
	
	
	
<path
   d="m 472.6709,144.31968 c -8.81579,0 -15.98747,7.27445 -15.98747,16.2154 0,8.94095 7.1722,16.21542 15.98747,16.21542 8.84601,0 19.71984,-11.04368 19.71984,-20.02829 0,-7.64989 -7.5562,-12.40253 -19.71984,-12.40253 z m 0,25.68171 c -5.14668,0 -9.33298,-4.24651 -9.33298,-9.46605 0,-5.21954 4.18681,-9.46604 9.33298,-9.46604 4.85234,0 13.06509,1.1905 13.06509,5.65344 0,5.212 -7.93635,13.27865 -13.06509,13.27865 z m 48.83081,-25.68171 c -12.16364,0 -19.71984,4.75264 -19.71984,12.40306 0,8.98459 10.87358,20.02827 19.71984,20.02827 8.81579,0 15.98748,-7.27446 15.98748,-16.21541 0,-8.94095 -7.17221,-16.21592 -15.98748,-16.21592 z m 0,25.68171 c -5.12874,0 -13.06509,-8.06665 -13.06509,-13.27891 0,-4.46243 8.21275,-5.65344 13.06509,-5.65344 5.14669,0 9.33299,4.24651 9.33299,9.46604 0,5.21954 -4.18707,9.46631 -9.33299,9.46631 z"
   id="path259"
   style="stroke-width:0.257988" /><path
   d="m 558.9182,157.09361 c -0.31127,-14.52531 -5.61962,-28.46001 -15.02815,-39.37255 -9.00693,-10.44679 -21.15579,-17.45051 -34.44669,-19.915591 v -0.54263 c -4.8e-4,-3.93845 -3.13594,-7.14255 -6.99002,-7.14255 h -7.66025 c -3.85361,0 -6.98906,3.2041 -6.98906,7.14206 v 0.54263 c -13.29186,2.465081 -25.44024,9.468801 -34.44716,19.915601 -9.40854,10.91253 -14.71689,24.84723 -15.02816,39.37255 -3.63435,0.30583 -6.5012,3.41981 -6.5012,7.21062 v 7.63033 c 0,3.99282 3.17908,7.24074 7.08612,7.24074 h 2.25964 c 3.82293,14.70578 11.14196,29.24825 20.30583,40.23375 11.22583,13.45721 24.07032,20.57013 37.14435,20.57013 13.07404,0 25.91876,-7.11317 37.14435,-20.57013 9.16436,-10.9855 16.48291,-25.52797 20.30585,-40.23375 h 2.25963 c 3.90681,0 7.08564,-3.24866 7.08564,-7.24074 v -7.63033 c 0,-3.7903 -2.86685,-6.90479 -6.50072,-7.21014 z M 494.02942,97.262349 c 0,-0.43048 0.34289,-0.78088 0.76415,-0.78088 h 7.66025 c 0.42174,0 0.76463,0.3504 0.76463,0.78088 v 10.681631 h -9.18879 V 97.262349 Z m -55.97748,74.672221 v -7.63033 c 0,-0.48532 0.38651,-0.87981 0.86145,-0.87981 h 10.35624 v 9.38995 h -10.35624 c -0.47494,0 -0.86145,-0.39497 -0.86145,-0.87981 z m 92.97853,43.34822 c -12.64153,15.15463 -24.60084,18.33547 -32.40726,18.33547 -22.94264,0 -43.37405,-27.03514 -51.00075,-54.44295 h 4.75962 c 1.71904,0 3.11245,-1.42391 3.11245,-3.18059 V 160.2436 c 0,-1.75669 -1.39341,-3.1806 -3.11245,-3.1806 h -7.82559 c 0.63117,-25.73194 18.78352,-47.6983 43.24801,-52.77931 v 6.84063 c 0,1.75669 1.3934,3.18058 3.11246,3.18058 h 15.41347 c 1.71905,0 3.11245,-1.42389 3.11245,-3.18058 v -6.84038 c 24.46401,5.081 42.61661,27.04737 43.24754,52.77931 h -7.8256 c -1.71905,0 -3.11244,1.4239 -3.11244,3.18059 v 15.75112 c 0,1.75669 1.39339,3.1806 3.11244,3.1806 h 4.74908 c -3.6921,13.24906 -10.34018,26.22608 -18.58343,36.10723 z M 559.194,171.93457 c 0,0.48533 -0.38651,0.87981 -0.86096,0.87981 H 547.9768 v -9.38995 h 10.35624 c 0.47445,0 0.86096,0.39497 0.86096,0.87981 z"
   id="path261"
   style="stroke-width:0.242231" /><path
   d="m 526.25108,207.33425 c -1.35487,-1.37419 -1.08026,-3.88043 0.61327,-5.59784 1.69353,-1.71768 4.16452,-1.99594 5.51914,-0.62201 1.35462,1.37393 1.08027,3.88042 -0.61326,5.59784 -1.69328,1.71768 -4.16453,1.9962 -5.51915,0.62201 z m -63.85023,-0.62227 c -1.69352,-1.71768 -1.96788,-4.22391 -0.61326,-5.59784 1.35461,-1.37394 3.82587,-1.09566 5.51914,0.62202 1.69328,1.71766 1.96788,4.2239 0.61326,5.59783 -1.35461,1.37393 -3.82561,1.0954 -5.51914,-0.62201 z m 20.59184,-17.00293 c 2.39492,0 4.33616,1.96919 4.33616,4.39798 0,2.42882 -1.9415,4.39799 -4.33616,4.39799 -2.39466,0 -4.33616,-1.96917 -4.33616,-4.39799 0,-2.42879 1.9415,-4.39798 4.33616,-4.39798 z m 0,12.31472 c 2.39492,0 4.33616,1.96919 4.33616,4.39798 0,2.42882 -1.9415,4.39799 -4.33616,4.39799 -2.39466,0 -4.33616,-1.96917 -4.33616,-4.39799 0,-2.42879 1.9415,-4.39798 4.33616,-4.39798 z m 0,12.31472 c 2.39492,0 4.33616,1.96918 4.33616,4.39799 0,2.4288 -1.9415,4.39799 -4.33616,4.39799 -2.39466,0 -4.33616,-1.96919 -4.33616,-4.39799 0,-2.42881 1.9415,-4.39799 4.33616,-4.39799 z m 28.18672,-24.62944 c 2.39492,0 4.33616,1.96919 4.33616,4.39798 0,2.42882 -1.9415,4.39799 -4.33616,4.39799 -2.39492,0 -4.33616,-1.96917 -4.33616,-4.39799 0,-2.42879 1.94124,-4.39798 4.33616,-4.39798 z m 0,12.31472 c 2.39492,0 4.33616,1.96919 4.33616,4.39798 0,2.42882 -1.9415,4.39799 -4.33616,4.39799 -2.39492,0 -4.33616,-1.96917 -4.33616,-4.39799 0,-2.42879 1.94124,-4.39798 4.33616,-4.39798 z m 0,12.31472 c 2.39492,0 4.33616,1.96918 4.33616,4.39799 0,2.4288 -1.9415,4.39799 -4.33616,4.39799 -2.39492,0 -4.33616,-1.96919 -4.33616,-4.39799 0,-2.42881 1.94124,-4.39799 4.33616,-4.39799 z"
   id="path263"
   style="stroke-width:0.257988" /><path
   d="m 482.99269,107.46255 c 2.39492,0 4.33616,1.96918 4.33616,4.39799 0,2.4288 -1.9415,4.39798 -4.33616,4.39798 -2.39466,0 -4.33616,-1.96918 -4.33616,-4.39798 0,-2.42881 1.9415,-4.39799 4.33616,-4.39799 z m 0,12.31524 c 2.39492,0 4.33616,1.96918 4.33616,4.39799 0,2.42906 -1.9415,4.39798 -4.33616,4.39798 -2.39466,0 -4.33616,-1.96918 -4.33616,-4.39798 0,-2.42881 1.9415,-4.39799 4.33616,-4.39799 z m 0,12.31473 c 2.39492,0 4.33616,1.96917 4.33616,4.39798 0,2.42906 -1.9415,4.39798 -4.33616,4.39798 -2.39466,0 -4.33616,-1.96918 -4.33616,-4.39798 0,-2.42881 1.9415,-4.39798 4.33616,-4.39798 z m 28.18672,-24.62997 c 2.39492,0 4.33616,1.96918 4.33616,4.39799 0,2.4288 -1.9415,4.39798 -4.33616,4.39798 -2.39492,0 -4.33616,-1.96918 -4.33616,-4.39798 0,-2.42881 1.94124,-4.39799 4.33616,-4.39799 z m 0,12.31524 c 2.39492,0 4.33616,1.96918 4.33616,4.39799 0,2.42906 -1.9415,4.39798 -4.33616,4.39798 -2.39492,0 -4.33616,-1.96918 -4.33616,-4.39798 -2.6e-4,-2.42881 1.94124,-4.39799 4.33616,-4.39799 z m 0,12.31473 c 2.39492,0 4.33616,1.96917 4.33616,4.39798 0,2.42906 -1.9415,4.39798 -4.33616,4.39798 -2.39492,0 -4.33616,-1.96918 -4.33616,-4.39798 -2.6e-4,-2.42881 1.94124,-4.39798 4.33616,-4.39798 z"
   id="path265"
   style="stroke-width:0.257988" /><path
   style="opacity:0.66;fill:#333333;stroke-width:1.73736"
   d="m 542.84995,149.84757 c -2.12635,-9.83488 -9.09208,-21.54902 -16.67219,-28.03731 -4.0324,-3.45159 -7.88159,-6.27561 -8.55374,-6.27561 -0.67216,0 -1.59574,-1.95454 -2.0524,-4.34341 -0.45666,-2.38888 -0.51666,-4.34341 -0.13332,-4.34341 3.37511,0 15.16222,8.19414 21.18314,14.72607 7.84368,8.50939 11.26414,15.10921 13.89193,26.80461 1.51434,6.73986 1.38649,7.11549 -2.42195,7.11549 -3.1275,0 -4.29188,-1.25434 -5.24147,-5.64643 z"
   id="path773" /><path
   style="opacity:0.66;fill:#333333;stroke-width:1.73736"
   d="m 483.49024,228.31444 c -4.02316,-1.99144 -10.17949,-6.79164 -13.68075,-10.66711 -5.49101,-6.07789 -5.97804,-7.26337 -3.54368,-8.6257 3.64448,-2.03956 3.64198,-7.66987 -0.004,-9.06897 -1.55444,-0.59649 -3.89988,-0.1935 -5.21209,0.89553 -1.31221,1.08904 -2.38583,1.60015 -2.38583,1.13579 0,-0.46435 -0.77757,-4.94438 -1.72793,-9.95562 -0.95036,-5.01123 -1.23545,-12.19113 -0.63353,-15.95533 l 1.0944,-6.844 4.20619,3.95152 c 6.62386,6.22279 16.27848,5.42401 23.91616,-1.97872 12.90114,-12.50428 8.57106,-25.74213 -8.97156,-27.42775 -7.42428,-0.71338 -9.22005,-0.19783 -14.35185,4.12029 l -5.86575,4.93571 1.13991,-5.69952 c 1.39579,-6.97895 9.88609,-19.63722 15.74708,-23.4775 4.14936,-2.71876 4.34808,-2.67643 4.8761,1.03877 0.35234,2.47909 1.96017,4.07322 4.46729,4.42923 4.78153,0.67898 7.04069,-3.99297 4.16077,-8.60447 -1.91875,-3.0724 -1.26487,-3.23874 12.32169,-3.13446 10.36362,0.0795 13.26244,0.54646 10.4389,1.68138 -4.08985,1.64392 -4.87566,4.41742 -2.37126,8.36928 2.59324,4.09204 8.02538,1.56813 7.9492,-3.69338 -0.0377,-2.60152 0.63164,-4.73004 1.48735,-4.73004 3.79404,0 14.68476,10.83709 18.60629,18.51466 3.81165,7.46243 4.36233,11.02065 4.86715,31.44883 0.67449,27.29455 -1.50645,36.02057 -11.97541,47.91393 -12.72691,14.45854 -29.65849,18.80123 -44.55481,11.42765 z m 4.13221,-7.80404 c 0.57845,-1.50742 -0.2279,-4.0204 -1.79189,-5.58439 -2.63325,-2.63325 -3.05399,-2.63325 -5.68724,0 -3.552,3.55201 -1.92164,8.32515 2.84362,8.32515 1.97108,0 4.05706,-1.23335 4.63551,-2.74076 z m 28.37439,-1.41677 c 0,-5.07518 -4.89132,-7.332 -8.36416,-3.85916 -3.52827,3.52827 -1.30764,8.01669 3.96623,8.01669 3.48045,0 4.39793,-0.86733 4.39793,-4.15753 z m 0.2791,-14.08478 c 0.76817,-2.86665 0.74235,-5.43482 -0.0574,-5.70704 -0.79973,-0.27223 -1.08749,-2.41249 -0.63948,-4.75615 1.10589,-5.78504 -4.26211,-7.93131 -8.10531,-3.24071 -3.39589,4.14466 -19.27473,5.49862 -19.27473,1.64352 0,-2.79607 -4.26032,-4.70075 -7.6258,-3.40929 -1.75379,0.67299 -2.27968,3.62689 -1.92349,10.80399 0.26963,5.43277 0.57399,9.96834 0.67635,10.07903 0.10237,0.11071 8.14371,0.11071 17.86964,0 l 17.68352,-0.20127 z m 16.80317,0.22984 c 0.33947,-1.76273 -0.24349,-4.06569 -1.29548,-5.11768 -2.65077,-2.65076 -7.95161,2.76861 -6.47412,6.61888 1.42735,3.71961 6.97042,2.64861 7.7696,-1.5012 z m -24.03172,-27.35616 c 0,-1.16126 -2.08343,-1.62877 -5.21209,-1.16958 l -5.21209,0.76497 -0.34521,-12.29498 -0.34521,-12.29499 -0.59841,12.53746 -0.5984,12.53747 -4.92645,-0.98529 c -2.77631,-0.55526 -5.4423,-0.15063 -6.10837,0.9271 -0.81743,1.32263 2.60021,1.91239 11.08215,1.91239 7.8512,0 12.26408,-0.69609 12.26408,-1.93455 z m 24.75742,-6.77536 c 5.33028,-5.85024 6.02025,-11.64564 2.25364,-18.92946 -3.39371,-6.5627 -11.08934,-9.54313 -20.85832,-8.07818 -17.6303,2.64383 -18.86408,20.24162 -2.14928,30.65583 7.21657,4.4963 14.49982,3.21603 20.75396,-3.64819 z M 487.33035,136.383 c 0,-3.18411 -1.04544,-4.49186 -3.91684,-4.8996 -4.26888,-0.60618 -6.69346,3.11962 -4.96362,7.6275 0.62789,1.63625 2.61422,2.50532 4.96362,2.17171 2.8714,-0.40775 3.91684,-1.71549 3.91684,-4.89961 z m 27.79781,0 c 0,-5.69968 -6.95597,-7.19078 -8.64974,-1.85419 -1.52096,4.79212 0.36349,7.37842 4.90461,6.73129 2.69424,-0.38394 3.74513,-1.75245 3.74513,-4.8771 z"
   id="path775" /><path
   style="opacity:0.66;fill:#333333;stroke-width:1.73736"
   d="m 481.62925,234.40783 c -4.94416,-2.46378 -12.51087,-8.39634 -16.81491,-13.18347 -7.40377,-8.23477 -21.78675,-33.92045 -21.78675,-38.90761 0,-1.27054 -2.14999,-3.33555 -4.77775,-4.58891 -6.20241,-2.95837 -7.6245,-13.25438 -2.5094,-18.16809 1.83046,-1.75839 3.8519,-6.71523 4.49209,-11.01521 2.65991,-17.86582 16.77174,-36.79135 33.19891,-44.52343 4.77775,-2.24883 9.57417,-4.096425 10.65871,-4.10576 1.08454,-0.0093 3.25255,-1.971505 4.8178,-4.36038 2.24138,-3.420776 4.3051,-4.343407 9.71526,-4.343407 5.41015,0 7.47388,0.922631 9.71526,4.343407 1.56525,2.388875 3.73326,4.351046 4.8178,4.36038 1.08454,0.0093 5.88096,1.85693 10.6587,4.10576 16.42718,7.73208 30.53901,26.65761 33.19892,44.52343 0.64019,4.29998 2.66163,9.25682 4.49209,11.01521 5.1151,4.91371 3.693,15.20972 -2.5094,18.16809 -2.62776,1.25336 -4.77775,3.31837 -4.77775,4.58891 0,4.98716 -14.38298,30.67284 -21.78675,38.90761 -9.68549,10.77259 -22.87454,17.66307 -33.80887,17.66307 -5.12058,0 -11.24339,-1.61398 -16.99396,-4.4796 z m 32.36766,-3.71498 c 9.79791,-4.60673 22.06248,-18.36309 28.74057,-32.23641 8.59416,-17.85382 9.02567,-19.99217 4.17314,-20.68032 -3.60314,-0.51098 -3.98465,-1.47997 -3.98465,-10.12058 0,-9.46549 0.052,-9.56054 5.52086,-10.09055 5.31008,-0.51462 5.48464,-0.77994 4.57222,-6.94945 -3.2347,-21.87225 -18.72309,-39.76537 -40.0626,-46.28271 -4.76105,-1.45409 -5.32534,1.95426 -0.86868,5.24689 5.04744,3.72911 0.4539,5.43374 -11.7272,4.35186 -10.78959,-0.95828 -11.31769,-1.21938 -11.85013,-5.85879 -0.47016,-4.09674 -1.14913,-4.67528 -4.34341,-3.70095 -22.4255,6.8403 -35.76405,22.53132 -40.04521,47.10782 -0.90674,5.20528 -0.6269,5.57388 4.61669,6.08077 5.54234,0.53578 5.58194,0.6074 5.58194,10.09511 0,8.64061 -0.38151,9.6096 -3.98465,10.12058 -4.59113,0.65108 -4.35352,2.33119 2.49219,17.62183 13.77742,30.77341 39.37354,45.54256 61.16892,35.2949 z m -64.01987,-63.03731 c 0,-4.79843 -0.4826,-5.21209 -6.08077,-5.21209 -5.59817,0 -6.08077,0.41366 -6.08077,5.21209 0,4.79843 0.4826,5.21209 6.08077,5.21209 5.59817,0 6.08077,-0.41366 6.08077,-5.21209 z m 109.45388,0 c 0,-4.79843 -0.4826,-5.21209 -6.08077,-5.21209 -5.59817,0 -6.08077,0.41366 -6.08077,5.21209 0,4.79843 0.4826,5.21209 6.08077,5.21209 5.59817,0 6.08077,-0.41366 6.08077,-5.21209 z M 503.8353,102.50442 c 0,-5.598167 -0.41366,-6.080768 -5.21209,-6.080768 -4.79843,0 -5.21209,0.482601 -5.21209,6.080768 0,5.59817 0.41366,6.08077 5.21209,6.08077 4.79843,0 5.21209,-0.4826 5.21209,-6.08077 z"
   id="path777" /><path
   style="opacity:0.66;fill:#333333;stroke-width:1.73736"
   d="m 447.21463,146.37284 c 1.17494,-5.01663 3.14684,-10.99304 4.38199,-13.2809 3.45395,-6.39775 15.87759,-19.26931 21.31037,-22.07871 4.66991,-2.4149 4.86786,-2.35011 4.86786,1.59328 0,2.72218 -2.0717,5.58458 -6.13369,8.47473 -7.8403,5.57846 -15.72032,17.9907 -17.27915,27.21731 -1.01719,6.02068 -1.87427,7.19545 -5.24965,7.19545 -3.97942,0 -4.00509,-0.12337 -1.89773,-9.12116 z"
   id="path779" /><path
   style="opacity:0.66;fill:#333333;stroke-width:1.73736"
   d="m 483.85562,227.10802 -5.21209,-2.95348 4.88105,-0.57706 c 4.15697,-0.49145 4.8013,-1.26722 4.34341,-5.22944 -0.42243,-3.65547 -1.46469,-4.65238 -4.86399,-4.65238 -3.41959,0 -4.51198,1.06268 -5.21209,5.07035 l -0.88574,5.07034 -5.80087,-6.60972 c -3.98436,-4.53992 -5.16087,-7.00527 -3.75706,-7.87287 1.12409,-0.69473 1.77995,-3.12926 1.45746,-5.41007 -0.43956,-3.10879 -1.67367,-4.14693 -4.92975,-4.14693 -5.04236,0 -6.42485,-3.6506 -6.7439,-17.80798 -0.21899,-9.71738 0.46064,-10.47788 5.77294,-6.45985 12.91424,9.76784 35.38082,-8.78488 29.42691,-24.3005 -2.79552,-7.28502 -21.17664,-10.46894 -29.38576,-5.09012 -3.53838,2.31844 -4.28228,2.37753 -4.28228,0.34015 0,-3.69678 9.48848,-17.92985 14.11171,-21.16809 3.81914,-2.67503 4.12342,-2.63836 5.33735,0.64321 0.82368,2.22662 2.87182,3.47997 5.68672,3.47997 3.72997,0 4.39939,-0.79308 4.39939,-5.21209 0,-5.08691 0.20586,-5.21209 8.57142,-5.21209 8.05912,0 8.60427,0.28556 9.12115,4.77775 0.43625,3.79143 1.4464,4.77775 4.89315,4.77775 3.18154,0 4.49192,-1.04569 4.89858,-3.90907 0.30535,-2.14998 1.24498,-3.90906 2.08808,-3.90906 2.8951,0 14.33358,13.03452 17.53322,19.97967 4.97136,10.79086 4.27554,13.76055 -1.80052,7.68449 -4.14946,-4.14946 -6.54881,-5.07844 -13.1165,-5.07844 -19.62031,0 -26.53131,14.61137 -13.21123,27.93145 8.65548,8.65547 19.4195,8.81809 27.21085,0.41108 l 4.19533,-4.52684 -0.0784,14.58694 c -0.0457,8.51594 -1.07165,16.75618 -2.46494,19.79903 -2.19159,4.78624 -2.39811,4.88283 -2.52768,1.18219 -0.21376,-6.10463 -7.76825,-4.57174 -8.49603,1.72393 -0.4269,3.69289 0.2653,4.7599 3.38125,5.21209 3.83092,0.55596 3.79288,0.71083 -1.71127,6.96569 -11.03119,12.53574 -30.71288,17.35622 -42.82992,10.49 z m 31.82228,-8.63461 c -0.63384,-5.50864 -7.6296,-7.85454 -9.4302,-3.16224 -1.72012,4.48256 0.66029,7.93999 5.46661,7.93999 3.89866,0 4.43846,-0.65068 3.96359,-4.77775 z m 0.90725,-11.18322 c 0.54646,-2.08968 0.53138,-7.17147 -0.0335,-11.29286 -0.84589,-6.17139 -1.6751,-7.48369 -4.70001,-7.43818 -2.02011,0.0304 -5.19052,1.20311 -7.04537,2.60604 -4.41988,3.34304 -13.85219,3.26437 -16.67681,-0.13909 -1.22782,-1.47944 -3.86444,-2.4567 -5.85916,-2.1717 -3.1981,0.45693 -3.66105,1.80158 -3.91694,11.3767 l -0.29019,10.85852 h 18.76421 c 17.83761,0 18.81327,-0.18762 19.75778,-3.79943 z m -7.53776,-29.21047 c 0,-0.95555 -2.34544,-1.73737 -5.21209,-1.73737 h -5.21209 l -0.29987,-11.7272 -0.29987,-11.7272 -1.00315,11.29286 c -0.99777,11.23221 -1.03348,11.29579 -6.64959,11.83728 -10.50647,1.01301 -5.72863,3.79899 6.51512,3.79899 6.94945,0 12.16154,-0.74458 12.16154,-1.73736 z m -21.71704,-41.7337 c 0,-3.40641 -0.99852,-4.42132 -4.77775,-4.85616 -4.27457,-0.49185 -4.77775,3.7e-4 -4.77775,4.67365 0,4.62904 0.54365,5.18162 4.77775,4.85617 3.82831,-0.29425 4.77775,-1.223 4.77775,-4.67366 z m 27.5574,2.64303 c 1.63732,-4.26679 -0.76766,-8.04507 -4.75847,-7.47565 -2.56552,0.36605 -3.85525,1.98029 -4.23768,5.30394 -0.46784,4.06603 0.0868,4.77775 3.72319,4.77775 2.35011,0 4.72294,-1.17272 5.27296,-2.60604 z"
   id="path781" /><path
   style="opacity:0.66;fill:#333333;stroke-width:1.73736"
   d="m 543.8499,197.62505 c 0.0304,-1.67221 1.17807,-4.52373 2.55039,-6.33672 1.37233,-1.81299 2.08314,-3.96297 1.57958,-4.77775 -0.50356,-0.81478 -0.1362,-1.48141 0.81636,-1.48141 3.00425,0 1.35426,-6.9037 -1.89659,-7.93548 -2.41452,-0.76634 -3.10499,-2.84288 -3.10499,-9.33806 0,-7.96653 0.25114,-8.40279 5.43399,-9.43936 5.30113,-1.06023 5.40541,-1.2655 4.26522,-8.39584 -1.89032,-11.8214 -7.11116,-21.51093 -16.96531,-31.48652 -12.63182,-12.78747 -32.6773,-20.3054 -26.11237,-9.79328 2.95068,4.72479 2.7248,5.15913 -2.67181,5.13753 -11.57415,-0.0463 -17.51475,-2.05076 -18.57289,-6.26676 -1.34414,-5.35545 -3.55611,-5.21711 -15.86629,0.99227 -5.59427,2.82181 -10.46707,4.83491 -10.82842,4.47355 -1.1142,-1.11419 12.41875,-9.32616 17.34192,-10.5233 2.55744,-0.62188 6.0756,-2.71372 7.81814,-4.648542 6.6711,-7.407253 14.62282,-7.4275 22.37713,-0.05698 1.96493,1.867685 6.46558,4.350562 10.00144,5.517492 8.62523,2.84659 23.71295,16.91892 29.45916,27.4766 2.56508,4.7129 5.52849,12.6009 6.58535,17.52889 1.05687,4.92799 2.55385,8.95998 3.32663,8.95998 1.79319,0 4.19116,8.48202 3.6838,13.03022 -0.21318,1.9111 -1.9518,4.58104 -3.8636,5.93319 -1.9118,1.35215 -5.72168,7.41121 -8.4664,13.46456 -5.08024,11.20423 -6.9894,13.41132 -6.89044,7.96572 z m 15.58102,-29.96951 c 0,-4.79843 -0.4826,-5.21209 -6.08077,-5.21209 -5.59817,0 -6.08077,0.41366 -6.08077,5.21209 0,4.79843 0.4826,5.21209 6.08077,5.21209 5.59817,0 6.08077,-0.41366 6.08077,-5.21209 z M 503.8353,102.50442 c 0,-5.598167 -0.41366,-6.080768 -5.21209,-6.080768 -4.79843,0 -5.21209,0.482601 -5.21209,6.080768 0,5.59817 0.41366,6.08077 5.21209,6.08077 4.79843,0 5.21209,-0.4826 5.21209,-6.08077 z"
   id="path783" /><path
   style="opacity:0.66;fill:#333333;stroke-width:1.73736"
   d="m 470.83983,198.97376 c -1.42538,-0.90116 -4.55264,-1.21686 -6.94945,-0.70155 -3.41845,0.73495 -3.79607,0.53785 -1.7518,-0.91437 2.22363,-1.57962 2.12868,-1.85519 -0.64707,-1.87789 -2.83644,-0.0232 -2.9477,-0.40311 -0.86868,-2.96615 1.79525,-2.21319 1.82603,-2.60369 0.12455,-1.58033 -1.74482,1.04943 -2.16563,-0.46158 -1.84634,-6.62976 0.37371,-7.21955 0.75869,-7.87491 3.99725,-6.80465 1.97103,0.65137 7.49277,2.22165 12.27052,3.48949 l 8.68681,2.30517 -7.81813,-0.64759 c -4.29997,-0.35618 -9.77267,-0.0964 -12.16154,0.57737 -2.65439,0.74862 0.38584,1.16898 7.81813,1.08098 12.00494,-0.14213 15.64468,-2.45081 7.48633,-4.74856 -3.87494,-1.09135 -3.85608,-1.13574 0.55341,-1.30302 2.51077,-0.0953 5.56901,1.03654 6.7961,2.5151 1.78387,2.14943 2.523,2.23649 3.68746,0.43434 1.16576,-1.80417 1.79249,-1.73391 3.14073,0.3521 1.38813,2.14773 2.30062,2.22412 5.18851,0.43434 1.92729,-1.19443 5.14355,-2.1717 7.14725,-2.1717 2.16628,0 3.3314,-0.88034 2.87421,-2.1717 -0.42287,-1.19444 -2.73574,-2.0379 -5.1397,-1.87436 -3.54789,0.24136 -4.37083,-0.49463 -4.37083,-3.90907 0,-2.49477 1.01379,-4.20641 2.49141,-4.20641 1.37027,0 2.00822,0.78181 1.41766,1.73736 -0.59057,0.95555 -0.16321,1.73737 0.94969,1.73737 1.11289,0 4.30745,1.92187 7.09903,4.27082 2.79157,2.34896 6.22714,3.82894 7.63459,3.28885 1.40745,-0.54009 2.559,-0.11652 2.559,0.94126 0,1.10483 2.77243,1.82592 6.51511,1.69454 l 6.51511,-0.22871 -6.08077,-1.27995 c -4.21065,-0.8863 -4.85292,-1.35028 -2.08837,-1.50865 2.19582,-0.12579 5.88473,-2.3787 8.19757,-5.00646 2.31285,-2.62776 4.22988,-3.84662 4.26008,-2.70858 0.0302,1.13804 -0.64271,2.50032 -1.49535,3.02728 -0.85263,0.52695 -1.24784,4.06506 -0.87825,7.86246 0.57774,5.9359 0.24687,6.76769 -2.35882,5.93 -2.54905,-0.81949 -2.61657,-0.68223 -0.42477,0.86351 4.11715,2.90357 3.08773,6.20862 -2.31253,7.42453 -5.99749,1.35039 -13.04378,-1.89511 -11.91784,-5.48931 0.44395,-1.41716 0.19108,-2.00244 -0.56192,-1.30063 -0.753,0.70181 -2.30202,1.7e-4 -3.44226,-1.55921 -1.47848,-2.02194 -3.41701,-2.49795 -6.75795,-1.65942 -2.57663,0.64669 -4.26639,1.85277 -3.75502,2.68018 0.51136,0.82741 -0.30242,1.97721 -1.80841,2.55511 -5.40872,2.07552 -11.07223,0.98197 -14.80334,-2.85833 -2.08885,-2.14999 -3.24589,-2.9318 -2.57119,-1.73737 0.78996,1.39848 0.0768,2.17171 -2.00306,2.17171 -1.77638,0 -4.03723,0.80744 -5.02411,1.79432 -2.09536,2.09536 -8.02614,0.32107 -6.60625,-1.97637 0.52868,-0.85543 -0.25762,-1.55532 -1.74734,-1.55532 -4.07067,0 -3.30795,1.40416 2.93785,5.40854 4.34341,2.78469 4.74434,3.41773 1.73737,2.74316 -2.14999,-0.48232 -3.90907,-0.16832 -3.90907,0.69777 0,0.86609 1.56363,1.57471 3.47473,1.57471 1.9111,0 3.47472,0.78182 3.47472,1.73736 0,2.17823 -3.52519,2.20145 -6.93502,0.0457 z m -2.22233,-6.30743 c -0.57731,-0.57731 -2.07579,-0.63904 -3.32995,-0.13716 -1.38595,0.55461 -0.97427,0.96629 1.04966,1.04966 1.83147,0.0754 2.8576,-0.33519 2.28029,-0.9125 z m 63.01561,-0.68771 c 0,-0.95555 -0.34477,-1.73736 -0.76615,-1.73736 -0.42138,0 -1.24933,0.78181 -1.8399,1.73736 -0.59056,0.95555 -0.24579,1.73737 0.76615,1.73737 1.01194,0 1.8399,-0.78182 1.8399,-1.73737 z m -34.74726,-2.54491 c 0,-0.44416 -1.75908,-1.66001 -3.90907,-2.70189 -3.75379,-1.81909 -3.77511,-1.78701 -0.53662,0.80755 3.54468,2.83987 4.44569,3.2238 4.44569,1.89434 z m 29.53517,0.12476 c 0,-0.37555 -1.21333,-1.14841 -2.69628,-1.71748 -1.54612,-0.5933 -2.2435,-0.30204 -1.63483,0.68281 1.02028,1.65085 4.33111,2.44177 4.33111,1.03466 z m 0.86868,-4.5293 c -0.59056,-0.95555 -2.39578,-1.72539 -4.0116,-1.71076 -2.53182,0.0229 -2.57767,0.25937 -0.33181,1.71076 3.40241,2.1988 5.70234,2.1988 4.34341,0 z m 7.3476,-1.04966 c -0.57731,-0.57731 -2.07579,-0.63903 -3.32995,-0.13716 -1.38595,0.55461 -0.97427,0.96629 1.04966,1.04966 1.83147,0.0754 2.8576,-0.33519 2.28029,-0.9125 z"
   id="path785" /><path
   style="opacity:0.66;fill:#333333;stroke-width:1.73736"
   d=""
   id="path787" /><path
   style="opacity:0.66;fill:#333333;stroke-width:1.73736"
   d="m 467.35067,165.91818 c -4.31383,-4.31384 -4.39485,-7.31557 -0.29754,-11.02359 3.52502,-3.1901 10.19382,-3.72465 14.19645,-1.13796 1.94705,1.25829 1.01235,1.69089 -3.69634,1.71076 -6.06581,0.0256 -11.96823,4.05215 -9.52355,6.49684 0.64579,0.64579 3.97212,1.17416 7.39183,1.17416 h 6.21765 l -3.86199,3.12726 c -4.89539,3.96404 -6.15703,3.922 -10.42651,-0.34747 z"
   id="path789" /><path
   style="opacity:0.66;fill:#333333;stroke-width:1.73736"
   d="m 516.86552,174.67538 c -4.6038,-1.91683 -12.35577,-10.42071 -13.76678,-15.10212 -0.78485,-2.60396 0.16497,-5.2408 3.12912,-8.68682 3.61895,-4.20728 5.55158,-4.94794 12.91088,-4.94794 9.66817,0 14.91526,3.3828 16.78166,10.81915 1.55554,6.19775 -2.08715,14.04407 -7.92046,17.06059 -5.48263,2.83518 -6.243,2.89372 -11.13442,0.85714 z m 9.66971,-5.34361 c 3.88203,-2.07759 4.74092,-13.49979 1.27568,-16.96503 -4.68294,-4.68293 -20.50089,-1.06582 -20.50089,4.68798 0,3.9732 9.52999,14.07555 13.27809,14.07555 1.42264,0 4.09884,-0.80933 5.94712,-1.7985 z"
   id="path791" /><path
   style="opacity:0.66;fill:#333333;stroke-width:1.73736"
   d="m 520.88185,174.95164 c -5.34607,-0.63728 -17.04655,-12.56514 -17.04655,-17.37781 0,-3.85645 3.27346,-7.3095 6.86258,-7.23909 2.21676,0.0435 2.15532,0.36595 -0.34747,1.82369 -4.29871,2.50377 -3.77403,7.40917 1.45746,13.62645 9.92547,11.79574 25.29687,1.44188 18.02675,-12.14246 -1.99781,-3.73294 -0.0487,-4.51277 3.18838,-1.27568 6.76413,6.76413 -2.36712,23.75003 -12.14115,22.5849 z"
   id="path793" /><path
   style="opacity:0.66;fill:#333333;stroke-width:1.73736"
   d=""
   id="path795" /><path
   style="opacity:0.66;fill:#333333;stroke-width:1.73736"
   d="m 515.75497,166.04822 -4.10154,-3.34468 8.25244,0.3043 c 8.69303,0.32054 9.54992,0.91798 6.16768,4.30023 -2.92827,2.92826 -5.57974,2.60453 -10.31858,-1.25985 z"
   id="path797" /><path
   style="opacity:0.66;fill:#333333;stroke-width:1.73736"
   d="m 531.75522,162.00911 c -0.0672,-2.62776 0.6597,-4.77775 1.61525,-4.77775 2.03917,0 2.03917,1.33537 0,6.08077 -1.32311,3.07904 -1.50705,2.93066 -1.61525,-1.30302 z"
   id="path799" /><path
   style="opacity:0.66;fill:#333333;stroke-width:1.73736"
   d=""
   id="path801" /><path
   id="XMLID_468_"
   d="m 652.09794,253.29332 h -90.012 c -8.284,0 -15,6.716 -15,15 0,24.799 -20.183,44.974 -44.99,44.974 -24.808,0 -44.99,-20.175 -44.99,-44.974 0,-8.284 -6.716,-15 -15,-15 h -90.008 c -8.284,0 -15,6.716 -15,15 v 109.974 c 0,8.284 6.716,15 15,15 h 45 v 155 c 0,8.284 6.716,15 15,15 h 180 c 8.284,0 15,-6.716 15,-15 v -155 h 45 c 8.284,0 15,-6.716 15,-15 v -109.974 c 0,-8.284 -6.716,-15 -15,-15 z" /><path
   fill="#00ade1"
   d="m 395.27978,530.99985 5.44138,393.47945 c 0,5.97085 4.89724,11.34462 10.33862,11.34462 h 52.23724 c 5.44138,0 10.33862,-5.37377 10.33862,-11.34462 L 484.5184,657.58201 c 0,-11.94171 8.70621,-20.898 19.58896,-20.898 10.88276,0 19.58897,9.55337 19.58897,20.898 l 10.88276,266.89729 c 0,5.97085 4.89724,11.34462 10.33862,11.34462 h 51.6931 c 5.44138,0 10.33862,-5.37377 10.33862,-11.34462 l 5.44138,-393.47945 c 0,-5.97085 -4.89724,-5.37377 -10.33862,-5.37377 H 405.6184 c -5.44138,0 -10.33862,-0.59708 -10.33862,5.37377 z"
   id="path880"
   style="stroke-width:5.69997" /><path
   fill="#0096d1"
   d="m 499.75426,597.87345 c -1.63241,0 -3.26483,-1.79126 -3.26483,-3.58252 v -47.76685 c 0,-1.79126 1.63242,-3.58251 3.26483,-3.58251 1.63242,0 3.26483,1.79125 3.26483,3.58251 v 47.76685 c 0.54414,2.38834 -1.08828,3.58252 -3.26483,3.58252 z m 13.05931,6.56794 c 0.54414,-1.19417 0,-2.38834 -0.54414,-2.98543 -1.08827,-0.59709 -2.17655,0 -2.72069,0.59709 -2.17655,3.58251 -3.80896,5.37377 -5.44138,5.37377 -1.08827,0 -2.17655,1.19417 -2.17655,2.38834 0,1.19417 1.08828,2.38834 2.17655,2.38834 2.72069,0 5.98552,-2.38834 8.70621,-7.76211 z m 5.44138,-14.92714 c 1.08828,-3.58252 1.63241,-7.16503 1.63241,-10.74755 0,-1.19417 -0.54413,-2.38834 -1.63241,-2.38834 -1.08827,0 -2.17655,0.59709 -2.17655,1.79126 -0.54414,3.58251 -1.08828,6.56794 -1.63241,10.15046 0,1.19417 0.54413,2.38834 1.63241,2.38834 h 0.54414 c 0.54414,0 1.63241,-0.59709 1.63241,-1.19417 z m 2.17655,-26.86886 v -10.74754 c 0,-1.19417 -1.08827,-2.38834 -2.17655,-2.38834 -1.08827,0 -2.17655,1.19417 -2.17655,2.38834 v 10.74754 c 0,1.19417 1.08828,2.38835 2.17655,2.38835 1.08828,0 2.17655,-1.19418 2.17655,-2.38835 z m 89.23862,-12.5388 c 0,-1.19417 -1.08827,-2.38834 -2.17655,-2.38834 h -4.3531 c -1.08828,0 -2.17655,1.19417 -2.17655,2.38834 0,1.19418 1.08827,2.38835 2.17655,2.38835 h 4.3531 c 1.63242,0 2.17655,-1.19417 2.17655,-2.38835 z m -18.50069,0 c 0,-1.19417 -1.08827,-2.38834 -2.17655,-2.38834 h -9.79448 c -1.08828,0 -2.17655,1.19417 -2.17655,2.38834 0,1.19418 1.08827,2.38835 2.17655,2.38835 h 9.79448 c 1.08828,0 2.17655,-1.19417 2.17655,-2.38835 z m -24.4862,0 c 0,-1.19417 -1.08828,-2.38834 -2.17655,-2.38834 h -9.79449 c -0.54414,0 -1.63241,1.19417 -1.63241,2.38834 0,1.19418 1.08827,2.38835 2.17655,2.38835 h 9.79448 c 1.08828,0 1.63242,-1.19417 1.63242,-2.38835 z m -23.94207,0 c 0,-1.19417 -1.08828,-2.38834 -2.17655,-2.38834 h -9.25035 c -1.08827,0 -2.17655,1.19417 -2.17655,2.38834 0,1.19418 1.08828,2.38835 2.17655,2.38835 h 9.79448 c 0.54414,0 1.63242,-1.19417 1.63242,-2.38835 z m -57.67862,0 c 0,-1.19417 -1.08828,-2.38834 -2.17655,-2.38834 h -9.79449 c -0.54414,0 -1.63241,1.19417 -1.63241,2.38834 0,1.19418 1.08827,2.38835 2.17655,2.38835 h 9.79448 c 1.08828,0 1.63242,-1.19417 1.63242,-2.38835 z m -23.94207,0 c 0,-1.19417 -1.08828,-2.38834 -2.17655,-2.38834 h -9.79449 c -1.08827,0 -2.17655,1.19417 -2.17655,2.38834 0,1.19418 1.08828,2.38835 2.17655,2.38835 h 9.79449 c 1.08827,0 2.17655,-1.19417 2.17655,-2.38835 z m -24.48621,0 c 0,-1.19417 -1.08827,-2.38834 -2.17655,-2.38834 h -9.79448 c -1.08828,0 -2.17655,1.19417 -2.17655,2.38834 0,1.19418 1.08827,2.38835 2.17655,2.38835 h 9.79448 c 1.63241,0 2.17655,-1.19417 2.17655,-2.38835 z m -23.94207,0 c 0,-1.19417 -1.08827,-2.38834 -2.17655,-2.38834 h -9.79448 c -1.08828,0 -2.17655,1.19417 -2.17655,2.38834 0,1.19418 1.08827,2.38835 2.17655,2.38835 h 9.79448 c 1.08828,0 2.17655,-1.19417 2.17655,-2.38835 z m 61.48759,367.20768 c -0.54414,-0.59709 -1.08828,-0.59709 -2.17655,-0.59709 -22.8538,8.3592 -47.34,8.3592 -70.1938,0 -0.54413,0 -1.63241,0 -2.17655,0.59709 -0.54414,0.59708 -1.08827,1.19417 -1.08827,1.79126 0,7.16502 0.54413,14.92714 1.63241,22.09216 0,1.19418 0.54414,1.79126 1.63241,1.79126 11.4269,2.98543 22.8538,4.77669 34.82483,4.77669 11.97104,0 23.39793,-1.79126 34.82483,-4.77669 1.08827,0 1.63241,-1.19417 1.63241,-1.79126 0.54414,-7.16502 1.08828,-14.92714 1.08828,-22.09216 0.54414,-0.59709 0.54414,-1.79126 0,-1.79126 z m 133.31379,0 c -0.54414,-0.59709 -1.08827,-0.59709 -2.17655,-0.59709 -22.85379,8.3592 -47.34,8.3592 -70.19379,0 -0.54414,0 -1.63242,0 -2.17655,0.59709 -0.54414,0.59708 -1.08828,1.19417 -1.08828,1.79126 0,7.16502 0.54414,14.92714 1.08828,22.09216 0,1.19418 0.54413,1.79126 1.63241,1.79126 11.4269,3.58252 22.85379,4.77669 34.82483,4.77669 11.97103,0 23.39793,-1.79126 34.82482,-4.77669 1.08828,0 1.63242,-1.19417 1.63242,-1.79126 1.08827,-7.16502 1.63241,-14.92714 1.63241,-22.09216 1.08828,-0.59709 0.54414,-1.79126 0,-1.79126 z M 425.7515,568.61625 c -2.17655,0 -3.80896,1.79126 -3.80896,4.1796 0,15.52423 -10.88276,28.06302 -25.03035,29.2572 v 8.35919 c 17.95655,-1.19417 32.10414,-17.31548 32.10414,-37.61639 0.54414,-2.38834 -1.08828,-4.1796 -3.26483,-4.1796 z m 185.0069,32.83971 c -14.14759,-0.59709 -25.03035,-13.13588 -25.03035,-28.66011 0,-2.38834 -1.63241,-4.1796 -3.80896,-4.1796 -2.17655,0 -3.80897,1.79126 -3.80897,4.1796 0,19.70382 14.14759,36.42222 32.10414,37.61639 z m 1.63241,-79.41239 H 395.27978 v 12.5388 h 217.11103 z"
   id="path882"
   style="stroke-width:5.69997" /><ellipse
   fill="#c4f0f2"
   cx="499.75427"
   cy="553.09204"
   id="circle884"
   rx="8.1620693"
   ry="8.9562845"
   style="stroke-width:5.69997" /><g
   id="g1102"
   transform="matrix(1.6117242,0,0,2.3941926,840.14518,86.087658)"><g
     id="g1048">
	<path
   d="m 67.91,22.268 c 0,1.182 -0.958,2.14 -2.141,2.14 -1.182,0 -2.14,-0.958 -2.14,-2.14 0,-1.181 0.958,-2.139 2.14,-2.139 1.183,0 2.141,0.958 2.141,2.139 z m 18.353,42.055 c 0,0 -4.209,4.765 -4.209,7.09 0,2.325 1.885,4.209 4.209,4.209 2.323,0 4.208,-1.884 4.208,-4.209 0,-2.325 -4.208,-7.09 -4.208,-7.09 z M 81.054,51.272 c 0,-0.275 0.053,-0.592 0.14,-0.928 l -0.598,0.792 c -4.518,4.953 -9.763,9.357 -15.411,13.16 -6.76,5.708 -14.417,10.68 -22.66,13.483 L 41.481,78.133 32.887,71.94 8.914,93.376 c -1.021,0.912 -2.295,1.361 -3.563,1.361 -1.47,0 -2.932,-0.602 -3.989,-1.784 -1.97,-2.202 -1.78,-5.583 0.422,-7.552 L 24,65.536 23.207,64.964 22.833,64.59 21.538,63.144 C 21.198,62.17 21.522,61.298 22.499,60.549 28.621,55.855 49.43,38.332 60.159,9.907 l 0.905,-2.4 34.127,20.526 -1.073,1.826 c -0.234,0.399 -1.863,3.136 -4.636,7.13 -0.557,1.412 -1.225,2.84 -1.276,4.067 l -0.158,0.209 c 1.508,1.978 3.424,4.831 3.424,6.577 0,2.87 -2.32,5.195 -5.188,5.207 -0.475,1.155 -1.383,1.948 -2.438,1.948 -1.542,0 -2.792,-1.668 -2.792,-3.725 z m 6.872,-20.221 c 0.105,0.043 0.184,0.095 0.281,0.141 0.426,-0.646 0.797,-1.22 1.104,-1.702 L 63.229,13.802 C 52.842,39.477 34.739,56.161 26.992,62.451 l 15.185,10.913 c 0.825,-0.303 1.643,-0.635 2.456,-0.983 -2.938,-2.415 -6.056,-5.431 -7.095,-9.124 -1.015,-3.607 1.814,-5.125 4.758,-5.609 -0.032,-1.84 0.58,-3.495 2.752,-4.191 1.29,-0.414 7.281,1.906 7.401,1.531 0.478,-1.484 1.806,-2.133 3.29,-1.868 3.008,0.536 2.474,1.636 1.69,-1.038 -0.269,-0.917 -0.598,-1.95 -0.589,-2.919 0.019,-2.157 0.847,-4.047 2.898,-4.926 1.737,-0.746 3.357,-0.102 3.74,-2.733 0.167,-1.147 0.425,-2.504 1.271,-3.381 1.963,-2.034 3.471,-1.702 6.167,-1.68 4.603,0.038 5.439,-3.323 9.161,-5.031 2.187,-1.001 5.599,-1.286 7.849,-0.361 z m 8.037,40.386 c 0,0 -6.281,7.111 -6.281,10.582 0,3.469 2.813,6.281 6.281,6.281 3.468,0 6.281,-2.812 6.281,-6.281 0,-3.471 -6.281,-10.582 -6.281,-10.582 z"
   id="path1046" />
</g><g
     id="g1050">
</g><g
     id="g1052">
</g><g
     id="g1054">
</g><g
     id="g1056">
</g><g
     id="g1058">
</g><g
     id="g1060">
</g><g
     id="g1062">
</g><g
     id="g1064">
</g><g
     id="g1066">
</g><g
     id="g1068">
</g><g
     id="g1070">
</g><g
     id="g1072">
</g><g
     id="g1074">
</g><g
     id="g1076">
</g><g
     id="g1078">
</g></g></g>
<g
   id="skeleton_1_"
   sodipodi:insensitive="true"
   style="opacity:0.25">
	<circle
   id="rightShoulder"
   cx="392.79999"
   cy="294.29999"
   r="8.1999998" />
	<circle
   id="rightElbow"
   cx="289.29999"
   cy="294.39999"
   r="8.1999998" />
	
		<circle
   id="rightWrist"
   transform="matrix(0.9951,-0.09853767,0.09853767,0.9951,-29.0274,13.8698)"
   cx="125.9"
   cy="300.79999"
   r="8.1999998" />
	<circle
   id="rightHip"
   cx="443.10001"
   cy="510.10001"
   r="8.1999998" />
	<circle
   id="rightKnee"
   cx="449.5"
   cy="670.29999"
   r="8.1999998" />
	<circle
   id="rightAnkle"
   cx="449.5"
   cy="878.29999"
   r="8.1999998" />
	<circle
   id="leftShoulder"
   cx="605.70001"
   cy="294.29999"
   r="8.1999998" />
	<circle
   id="leftElbow"
   cx="710.09998"
   cy="294"
   r="8.1999998" />
	<circle
   id="leftWrist"
   cx="873.5"
   cy="300.29999"
   r="8.1999998" />
	<circle
   id="leftHip"
   cx="559.5"
   cy="509.29999"
   r="8.1999998" />
	<circle
   id="leftKnee"
   cx="559.5"
   cy="670.29999"
   r="8.1999998" />
	<circle
   id="leftAnkle"
   cx="559.5"
   cy="878.29999"
   r="8.1999998" />
	<polygon
   style="fill:none;stroke:#000000;stroke-miterlimit:10"
   points="443,510.4 559.4,509.6 605.6,294.6 392.7,294.6 "
   id="polygon886" />
	<polyline
   style="fill:none;stroke:#000000;stroke-miterlimit:10"
   points="391.7,294.6 289,294.6 125.7,300.9  "
   id="polyline888" />
	<polyline
   style="fill:none;stroke:#000000;stroke-miterlimit:10"
   points="607.1,294.2 710.3,294.2 873.6,300.6  "
   id="polyline890" />
	<polyline
   style="fill:none;stroke:#000000;stroke-miterlimit:10"
   points="443,510.4 449.4,670.6 449.4,878.6  "
   id="polyline892" />
	<polyline
   style="fill:none;stroke:#000000;stroke-miterlimit:10"
   points="559.4,509.6 559.4,670.6 559.4,878.6  "
   id="polyline894" />
	<circle
   id="rightEye0"
   cx="468.60001"
   cy="160.2"
   r="0.80000001" />
	<circle
   id="rightBrow1"
   cx="466.39999"
   cy="148.3"
   r="0.80000001" />
	<circle
   id="rightBrow4"
   cx="489.70001"
   cy="151.3"
   r="0.80000001" />
	<circle
   id="nose1"
   cx="497.60001"
   cy="161.2"
   r="0.80000001" />
	<circle
   id="rightBrow3"
   cx="479.89999"
   cy="147.3"
   r="0.80000001" />
	<circle
   id="rightEye1"
   cx="473.79999"
   cy="156.5"
   r="0.80000001" />
	<circle
   id="rightBrow0"
   cx="462.39999"
   cy="152"
   r="0.80000001" />
	<circle
   id="rightBrow2"
   cx="472.60001"
   cy="147.3"
   r="0.80000001" />
	<circle
   id="rightEye5"
   cx="473.79999"
   cy="162.5"
   r="0.80000001" />
	<circle
   id="rightEye2"
   cx="480.10001"
   cy="156.5"
   r="0.80000001" />
	<circle
   id="rightEye3"
   cx="485.29999"
   cy="160.7"
   r="0.80000001" />
	<circle
   id="nose0"
   cx="497.60001"
   cy="155.39999"
   r="0.80000001" />
	<circle
   id="nose3"
   cx="497.60001"
   cy="173.8"
   r="0.80000001" />
	<circle
   id="rightNose0"
   cx="486.89999"
   cy="178.3"
   r="0.80000001" />
	<circle
   id="rightMouthCorner"
   cx="480.89999"
   cy="200.39999"
   r="0.80000001" />
	<circle
   id="rightNose1"
   cx="492.10001"
   cy="178.3"
   r="0.80000001" />
	<circle
   id="rightUpperLipTop0"
   cx="487.79999"
   cy="197"
   r="0.80000001" />
	<circle
   id="nose2"
   cx="497.60001"
   cy="166.7"
   r="0.80000001" />
	<circle
   id="nose4"
   cx="497.60001"
   cy="179.10001"
   r="0.80000001" />
	<circle
   id="upperLipTopMid"
   cx="498.39999"
   cy="196.8"
   r="0.80000001" />
	<circle
   id="rightUpperLipTop1"
   cx="494.29999"
   cy="195.89999"
   r="0.80000001" />
	<path
   id="rightMiddleLip"
   d="m 484.5,199.9 c 0.4,0 0.8,0.4 0.8,0.8 0,0.4 -0.4,0.8 -0.8,0.8 -0.4,0 -0.8,-0.4 -0.8,-0.8 0,-0.4 0.4,-0.8 0.8,-0.8 z" />
	<circle
   id="lowerLipBottomMid"
   cx="498.39999"
   cy="210"
   r="0.80000001" />
	<circle
   id="upperLipBottomMid"
   cx="498.39999"
   cy="200.39999"
   r="0.80000001" />
	<circle
   id="lowerLipTopMid"
   cx="498.39999"
   cy="203.5"
   r="0.80000001" />
	<circle
   id="rightUpperLipBottom1"
   cx="494.5"
   cy="199.89999"
   r="0.80000001" />
	<circle
   id="rightLowerLipTop0"
   cx="494.5"
   cy="202.8"
   r="0.80000001" />
	<circle
   id="rightLowerLipBottom1"
   cx="494.29999"
   cy="209.5"
   r="0.80000001" />
	<circle
   id="rightLowerLipBottom0"
   cx="487.29999"
   cy="206.7"
   r="0.80000001" />
	<circle
   id="rightEye4"
   cx="480.10001"
   cy="161.7"
   r="0.80000001" />
	<circle
   id="jawMid"
   cx="498.39999"
   cy="235.8"
   r="0.80000001" />
	<circle
   id="rightJaw7"
   cx="483.39999"
   cy="232.60001"
   r="0.80000001" />
	<circle
   id="rightJaw6"
   cx="473.39999"
   cy="225.89999"
   r="0.80000001" />
	<circle
   id="rightJaw5"
   cx="461.79999"
   cy="213.39999"
   r="0.80000001" />
	<circle
   id="rightJaw4"
   cx="455"
   cy="193.39999"
   r="0.80000001" />
	<circle
   id="rightJaw3"
   cx="454.20001"
   cy="171.7"
   r="0.80000001" />
	<circle
   id="rightJaw2"
   cx="454.20001"
   cy="162.2"
   r="0.80000001" />
	<circle
   id="rightJaw1"
   cx="455"
   cy="150.5"
   r="0.80000001" />
	<circle
   id="rightJaw0"
   cx="457.5"
   cy="141.2"
   r="0.80000001" />
	<circle
   id="topMid"
   cx="498.60001"
   cy="115.1"
   r="0.80000001" />
	<circle
   id="leftTop0"
   cx="518.29999"
   cy="117.6"
   r="0.80000001" />
	<circle
   id="leftTop1"
   cx="530.90002"
   cy="127.1"
   r="0.80000001" />
	<circle
   id="leftEye0"
   cx="528.20001"
   cy="160.2"
   r="0.80000001" />
	<circle
   id="leftBrow1"
   cx="530.09998"
   cy="148.7"
   r="0.80000001" />
	<circle
   id="leftBrow4"
   cx="506.5"
   cy="150.8"
   r="0.80000001" />
	<circle
   id="leftBrow3"
   cx="516.5"
   cy="147.60001"
   r="0.80000001" />
	<circle
   id="leftEye1"
   cx="523"
   cy="156.5"
   r="0.80000001" />
	<circle
   id="leftBrow0"
   cx="534.09998"
   cy="151.60001"
   r="0.80000001" />
	<circle
   id="leftBrow2"
   cx="523.79999"
   cy="147.2"
   r="0.80000001" />
	<circle
   id="leftEye5"
   cx="523"
   cy="162.5"
   r="0.80000001" />
	<circle
   id="leftEye2"
   cx="516.70001"
   cy="156.5"
   r="0.80000001" />
	<circle
   id="leftEye3"
   cx="511.5"
   cy="160.7"
   r="0.80000001" />
	<circle
   id="leftNose0"
   cx="508"
   cy="178.3"
   r="0.80000001" />
	<circle
   id="leftMouthCorner"
   cx="515.90002"
   cy="200.39999"
   r="0.80000001" />
	<circle
   id="leftNose1"
   cx="503.20001"
   cy="178.3"
   r="0.80000001" />
	<circle
   id="leftUpperLipTop0"
   cx="509"
   cy="197"
   r="0.80000001" />
	<circle
   id="leftUpperLipTop1"
   cx="502.60001"
   cy="195.89999"
   r="0.80000001" />
	<path
   id="leftMiddleLip"
   d="m 512.3,199.9 c 0.4,0 0.8,0.4 0.8,0.8 0,0.4 -0.4,0.8 -0.8,0.8 -0.4,0 -0.8,-0.4 -0.8,-0.8 0,-0.4 0.4,-0.8 0.8,-0.8 z" />
	<circle
   id="leftUpperLipBottom1"
   cx="502.39999"
   cy="199.89999"
   r="0.80000001" />
	<circle
   id="leftLowerLipTop0"
   cx="502.39999"
   cy="202.8"
   r="0.80000001" />
	<circle
   id="leftLowerLipBottom1"
   cx="502.60001"
   cy="209.5"
   r="0.80000001" />
	<circle
   id="leftLowerLipBottom0"
   cx="509.5"
   cy="206.7"
   r="0.80000001" />
	<circle
   id="leftEye4"
   cx="516.70001"
   cy="161.7"
   r="0.80000001" />
	<circle
   id="leftJaw7"
   cx="513.20001"
   cy="233"
   r="0.80000001" />
	<circle
   id="leftJaw6"
   cx="523.20001"
   cy="226.3"
   r="0.80000001" />
	<circle
   id="leftJaw5"
   cx="534.79999"
   cy="213.7"
   r="0.80000001" />
	<circle
   id="leftJaw4"
   cx="541.59998"
   cy="193.7"
   r="0.80000001" />
	<circle
   id="leftJaw3"
   cx="542.40002"
   cy="172.10001"
   r="0.80000001" />
	<circle
   id="leftJaw2"
   cx="542.40002"
   cy="162.5"
   r="0.80000001" />
	<circle
   id="leftJaw1"
   cx="541.59998"
   cy="150.8"
   r="0.80000001" />
	<circle
   id="leftJaw0"
   cx="539.09998"
   cy="141.60001"
   r="0.80000001" />
	<polyline
   style="fill:none;stroke:#000000;stroke-miterlimit:10"
   points="498.4,115.1 478.6,117.6 466.1,127.1 457.5,141.2    455,150.5 454.2,162.2 454.2,171.7 455,193.4 461.8,213.4 473.4,225.9 483.4,232.6 498.4,235.8 513.2,233 523.2,226.3 534.8,213.7    541.6,193.7 542.4,172.1 542.4,162.5 541.6,150.8 539.1,141.6 530.9,127.1 518.3,117.6 498.4,115.1  "
   id="polyline967" />
	<polyline
   style="fill:none;stroke:#000000;stroke-miterlimit:10"
   points="462.4,152 466.4,148.3 472.6,147.3 479.9,147.3    489.7,151.3  "
   id="polyline969" />
	<polygon
   style="fill:none;stroke:#000000;stroke-miterlimit:10"
   points="473.8,156.5 480.1,156.5 485.3,160.7 480.1,161.7 473.8,162.5 468.6,160.2 "
   id="polygon971" />
	<polyline
   style="fill:none;stroke:#000000;stroke-miterlimit:10"
   points="486.9,178.3 492.1,178.3 497.6,179.1 497.6,173.8    497.6,166.7 497.6,161.2 497.6,155.4  "
   id="polyline973" />
	<polyline
   style="fill:none;stroke:#000000;stroke-miterlimit:10"
   points="533.9,151.6 529.9,148.7 523.6,147.2 516.3,147.6    506.3,150.8  "
   id="polyline975" />
	<polygon
   style="fill:none;stroke:#000000;stroke-miterlimit:10"
   points="522.7,156.5 516.4,156.5 511.3,160.7 516.4,161.7 522.7,162.5 528,160.2 "
   id="polygon977" />
	<polyline
   style="fill:none;stroke:#000000;stroke-miterlimit:10"
   points="508,178.3 503,178.3 497.6,179.1  "
   id="polyline979" />
	<polygon
   style="fill:none;stroke:#000000;stroke-miterlimit:10"
   points="487.8,197 494.3,195.9 498.4,196.8 502.6,195.9 509,197 515.9,200.4 509.5,206.7 502.4,209.5 498.4,210 494.3,209.5 487.3,206.7 480.9,200.4 "
   id="polygon981" />
	<polyline
   style="fill:none;stroke:#000000;stroke-miterlimit:10"
   points="480.9,200.4 484.5,200.7 494.5,199.9 498.4,200.4    502.4,199.9 512.3,200.7 515.9,200.4  "
   id="polyline983" />
	<polyline
   style="fill:none;stroke:#000000;stroke-miterlimit:10"
   points="480.9,200.4 484.5,200.7 494.5,202.8 498.4,203.6    502.4,202.8 512.3,200.7 515.9,200.4  "
   id="polyline985" />
	<circle
   id="rightTop0"
   cx="478.70001"
   cy="117.6"
   r="0.80000001" />
	<circle
   id="rightTop1"
   cx="466.10001"
   cy="127.1"
   r="0.80000001" />
</g>
</svg>
