<svg version="1.0" xmlns="http://www.w3.org/2000/svg"
  viewBox="0 0 1200.377584 643.346985"
 preserveAspectRatio="xMidYMid meet">
<metadata>
For more coloring pages, please visit ColoringAll.com
</metadata>
<g transform="translate(-0.280224,644.221706) scale(0.100000,-0.100000)"
fill="#000000" stroke="none">
<path d="M11143 6425 c-68 -32 -137 -110 -256 -292 -281 -427 -425 -730 -511
-1072 -48 -190 -64 -318 -75 -572 -9 -220 -16 -256 -55 -288 -9 -7 -90 -21
-188 -31 l-173 -18 -63 35 c-35 19 -84 57 -109 83 -26 27 -51 47 -56 43 -5 -3
-20 -30 -33 -59 -13 -30 -36 -73 -51 -96 l-28 -41 -560 7 c-707 8 -1373 24
-1580 36 l-159 10 -68 67 c-37 37 -87 76 -110 87 -49 24 -42 8 -137 297 -44
131 -67 223 -81 313 -26 170 -44 236 -91 331 -28 59 -44 111 -59 195 -24 133
-61 245 -88 270 -16 15 -21 38 -26 127 -12 195 -16 224 -41 249 -41 40 -105 5
-228 -126 -163 -173 -239 -292 -416 -647 -151 -304 -255 -537 -347 -782 -40
-107 -79 -198 -86 -202 -22 -14 -132 -36 -523 -104 -842 -146 -1293 -249
-1910 -435 -738 -223 -1138 -383 -1845 -736 -597 -299 -823 -431 -1001 -587
-128 -112 -171 -173 -184 -258 -9 -59 10 -182 36 -235 49 -102 237 -283 371
-358 80 -44 240 -98 388 -130 63 -13 127 -29 141 -34 34 -14 126 -136 189
-252 78 -144 124 -185 260 -235 198 -71 851 -204 1235 -250 213 -26 191 -16
197 -83 8 -80 61 -204 104 -242 104 -91 330 -137 470 -95 94 28 184 136 171
205 -6 26 -2 31 38 54 24 14 58 43 77 65 l33 39 140 16 c624 74 1877 324 2162
431 l63 24 152 -70 c786 -363 1794 -813 1960 -875 308 -114 636 -201 740 -195
26 1 40 35 27 63 -17 37 -106 92 -849 513 -628 357 -913 523 -1063 622 -140
92 -269 205 -252 221 6 5 60 29 120 52 495 192 1083 452 1674 741 l283 138
122 -33 c234 -66 268 -71 446 -71 179 1 234 12 209 41 -7 9 -32 29 -56 46 -64
43 -103 102 -103 152 0 51 46 243 65 272 7 11 69 63 137 115 260 198 472 380
738 632 91 87 168 156 172 155 3 -2 89 -78 190 -169 322 -293 588 -515 723
-606 84 -56 231 -138 291 -162 72 -28 163 -37 188 -18 19 14 18 16 -12 69 -18
31 -32 61 -32 68 0 7 -22 61 -49 121 -27 59 -54 124 -60 146 -7 23 -24 48 -44
65 -34 27 -49 63 -62 155 -4 24 -24 69 -46 104 -85 131 -237 456 -364 779
-124 313 -120 296 -119 580 1 394 27 800 71 1130 39 300 35 399 -23 476 -31
42 -54 46 -111 19z m100 -66 c43 -83 46 -171 14 -339 -44 -226 -47 -257 -57
-490 -5 -124 -19 -317 -30 -430 -15 -142 -21 -250 -18 -350 3 -142 4 -147 50
-280 45 -132 120 -320 232 -587 30 -73 51 -133 45 -133 -13 0 -82 44 -95 61
-6 8 -26 68 -43 134 -53 195 -78 267 -115 330 -20 32 -36 54 -36 47 0 -6 17
-58 39 -114 21 -57 57 -164 80 -238 23 -74 47 -149 52 -166 8 -25 20 -35 54
-49 52 -19 90 -61 100 -107 7 -32 28 -64 134 -211 39 -54 53 -83 66 -145 19
-86 33 -118 63 -145 11 -10 35 -55 53 -100 18 -45 46 -106 62 -134 40 -73 27
-67 -18 8 -21 33 -39 58 -42 55 -9 -8 33 -90 85 -166 59 -85 55 -91 -35 -65
-54 16 -173 70 -173 80 0 2 33 -11 73 -30 39 -18 88 -37 107 -40 46 -9 29 7
-32 29 -98 36 -199 114 -359 275 -85 87 -180 174 -210 193 -30 19 -94 69 -143
112 -48 42 -90 75 -93 72 -9 -9 34 -60 105 -128 51 -48 81 -68 113 -76 50 -13
77 -39 164 -155 55 -75 147 -162 227 -214 21 -14 38 -27 38 -30 0 -13 -185
111 -295 198 -64 50 -599 501 -753 635 l-36 31 41 49 c23 27 62 69 88 94 26
25 56 59 68 75 l21 30 -30 -25 c-16 -14 -85 -79 -154 -145 -254 -242 -735
-671 -965 -860 -118 -97 -165 -124 -414 -236 -79 -36 -36 -30 70 10 135 51
159 57 159 40 0 -8 -11 -57 -25 -109 -38 -146 -36 -160 33 -232 l57 -61 -105
6 c-58 4 -192 23 -298 42 -106 20 -203 35 -215 33 -51 -8 404 -97 501 -99 26
0 65 -4 87 -9 28 -7 2 -8 -90 -5 -95 3 -179 14 -310 40 -277 54 -328 61 -333
47 -2 -7 -47 -35 -100 -61 -147 -74 -877 -407 -1440 -657 l-503 -224 -29 22
c-60 44 -46 77 59 132 114 60 102 76 -14 19 -59 -30 -94 -59 -106 -91 -18 -48
-64 -14 -128 96 -26 45 -56 82 -79 97 -48 31 -194 73 -280 80 -83 6 -73 1 47
-24 156 -34 228 -75 292 -168 41 -59 37 -66 -22 -43 -28 12 -108 37 -178 56
-69 19 -173 58 -230 85 -105 50 -142 61 -106 32 45 -36 210 -104 355 -148 239
-71 333 -124 540 -300 183 -156 466 -325 1490 -890 267 -147 503 -280 524
-294 l40 -26 -60 -3 c-67 -4 -254 27 -251 41 2 11 -623 306 -828 392 -71 30
-240 96 -375 148 -135 52 -301 117 -369 146 -68 29 -128 50 -133 49 -15 -5
113 -62 467 -208 535 -221 1047 -443 1150 -499 53 -29 22 -20 -150 42 -200 71
-402 159 -965 414 -736 335 -1076 484 -1474 648 -373 153 -466 188 -474 180
-5 -5 56 -33 333 -156 199 -87 213 -95 202 -105 -19 -19 -641 -159 -1111 -249
-733 -140 -928 -165 -1339 -172 -418 -7 -670 9 -1152 72 -621 81 -948 163
-1125 280 -73 48 -93 73 -138 163 -17 34 -52 89 -77 122 -25 32 -45 61 -45 63
0 3 11 8 25 11 35 9 62 -8 70 -44 9 -40 23 -38 31 6 l7 36 68 -68 c38 -37 70
-66 72 -63 3 2 12 19 22 38 l17 34 39 -43 39 -42 57 6 c32 4 114 18 182 32 68
14 126 23 128 20 5 -4 -300 -79 -397 -97 -141 -26 -81 -40 77 -18 316 44 704
209 985 420 110 83 129 85 274 38 52 -17 98 -29 101 -25 16 16 -272 116 -334
116 -20 0 -84 -15 -142 -34 -58 -19 -144 -42 -191 -50 -199 -38 -248 -50 -396
-96 -216 -70 -288 -87 -449 -111 -160 -24 -215 -21 -397 17 -259 54 -471 138
-604 238 -65 48 -204 189 -204 206 0 6 12 4 29 -4 20 -11 31 -12 39 -4 6 6 69
14 141 17 71 4 133 10 137 14 4 4 -68 7 -160 7 l-168 0 -33 33 c-30 30 -55 88
-55 129 0 11 10 20 26 24 62 16 463 -39 704 -96 121 -28 163 -32 104 -9 -189
74 -601 147 -774 137 -82 -4 -84 0 -44 79 32 66 130 158 254 238 259 170 1206
668 1565 823 266 115 633 242 1160 400 807 243 1124 318 1930 456 365 63 527
94 537 104 4 4 40 91 82 194 283 705 642 1352 852 1537 53 47 77 51 99 18 20
-31 35 -156 28 -233 -7 -71 9 -130 38 -139 10 -4 21 -18 24 -33 3 -15 15 -49
26 -77 11 -27 27 -97 36 -155 8 -58 29 -141 45 -185 30 -83 98 -336 98 -368 0
-27 -12 -15 -64 60 -38 56 -49 82 -60 146 -7 43 -16 80 -20 84 -3 3 -6 -35 -6
-86 l0 -93 51 -56 c68 -74 97 -121 110 -179 6 -27 22 -68 34 -93 13 -25 42
-97 64 -160 51 -142 81 -194 121 -209 16 -6 44 -16 60 -22 17 -7 42 -26 56
-43 l27 -31 -39 -8 c-22 -5 -106 -7 -189 -4 l-150 4 -95 48 c-52 26 -132 70
-178 98 -45 27 -85 47 -88 44 -17 -16 213 -166 302 -197 65 -23 254 -39 458
-40 66 0 117 -3 113 -6 -3 -4 -248 -10 -544 -15 -523 -8 -959 -23 -1055 -35
-27 -4 -48 -11 -48 -17 0 -7 65 -8 198 -4 108 4 346 12 527 18 182 6 618 10
970 9 1682 -6 2098 -4 2150 11 57 16 107 72 125 141 l12 41 29 -36 c16 -19 49
-48 74 -64 25 -15 43 -32 42 -38 -2 -5 -26 -16 -53 -25 -44 -13 -46 -15 -20
-18 16 -2 108 6 205 18 97 11 232 27 301 36 133 16 182 34 91 34 l-52 0 21 30
c26 36 35 98 50 332 11 174 35 341 70 481 27 105 82 278 87 273 2 -2 -16 -111
-42 -242 -53 -275 -75 -416 -75 -476 0 -71 16 -29 28 73 7 53 34 215 62 360
28 145 51 284 52 309 0 25 8 56 18 70 9 14 41 84 69 155 115 285 309 607 465
774 53 56 104 93 121 88 6 -2 23 -28 38 -58z m307 -2730 c0 -6 -4 -7 -10 -4
-5 3 -10 11 -10 16 0 6 5 7 10 4 6 -3 10 -11 10 -16z m-9054 -1878 c-9 -10
-37 -29 -62 -42 -44 -24 -45 -24 -60 -5 -8 11 -14 23 -14 27 0 14 71 34 129
38 23 1 23 0 7 -18z m-206 -61 c0 -21 -8 -24 -34 -14 -13 5 -14 9 -5 20 17 21
39 17 39 -6z m59 -4 c8 -10 6 -19 -10 -40 -29 -37 -38 -32 -27 14 11 43 19 48
37 26z m-101 -26 c17 -11 32 -24 32 -30 0 -20 -41 -9 -72 20 -28 25 -30 29
-13 30 11 0 35 -9 53 -20z m-178 -20 c0 -12 -7 -34 -15 -50 -9 -17 -12 -30 -7
-30 11 0 37 30 45 50 4 10 6 8 6 -7 1 -33 -20 -73 -39 -73 -10 0 -36 27 -59
59 l-41 60 32 4 c73 9 78 8 78 -13z m167 -73 c-39 -31 -261 -135 -312 -147
-83 -19 -147 -29 -197 -29 l-47 -1 21 63 c12 34 22 64 24 66 2 2 28 -19 58
-47 30 -29 61 -52 70 -52 18 0 66 56 66 78 0 12 -9 6 -30 -18 l-30 -35 -52 54
c-29 30 -48 56 -42 58 6 2 33 -8 59 -21 56 -30 79 -23 101 29 20 48 34 53 58
19 35 -49 64 -74 86 -74 26 0 60 54 60 96 0 17 3 33 6 37 3 3 32 -9 65 -26
l58 -32 -22 -18z m-317 42 c0 -21 -35 -69 -50 -69 -25 0 -54 25 -45 39 8 14
62 40 83 41 6 0 12 -5 12 -11z m-240 -154 c-6 -22 -18 -50 -26 -62 l-14 -23
-96 48 c-93 46 -96 46 -110 28 -8 -11 -14 -34 -13 -50 1 -30 1 -30 8 -6 10 35
32 36 98 4 l58 -27 -74 -14 c-41 -8 -84 -12 -95 -9 -12 3 -33 26 -47 50 -22
35 -34 45 -65 50 -28 6 -34 10 -23 17 26 16 67 9 97 -16 31 -26 42 -24 42 6 0
20 28 39 59 39 11 0 36 -14 56 -31 35 -31 36 -31 73 -17 26 10 38 21 42 39 3
14 12 32 20 41 14 15 15 14 18 -5 2 -12 -1 -39 -8 -62z m-62 43 c-4 -28 -39
-36 -58 -14 -10 13 -9 17 11 25 39 16 51 13 47 -11z m-372 -59 c34 -21 60 -56
50 -66 -6 -6 -35 13 -86 56 -28 24 -31 31 -16 31 10 0 34 -9 52 -21z m1944
-749 c352 -11 458 -18 465 -30 2 -4 -22 -26 -55 -49 -66 -47 -83 -69 -69 -92
20 -31 9 -62 -39 -109 -61 -62 -102 -73 -252 -68 -103 3 -121 7 -174 33 -84
42 -141 102 -183 192 -19 41 -37 91 -40 110 -5 31 -4 35 13 30 10 -4 161 -11
334 -17z m5730 -650 c0 -13 -11 -13 -30 0 -12 8 -11 10 8 10 12 0 22 -4 22
-10z M11192 6201 c-6 -19 -12 -46 -11 -60 1 -25 1 -24 15 8 8 18 14 45 12 60
-3 25 -3 25 -16 -8z M11152 6023 c-15 -28 -59 -189 -72 -262 -6 -34 -29 -120
-51 -190 -51 -164 -97 -393 -74 -370 2 3 18 66 35 141 17 75 44 176 60 224 17
49 42 142 55 209 14 66 35 151 46 188 20 68 20 97 1 60z M6365 5948 c-49 -54
-225 -311 -225 -328 0 -20 11 -7 71 83 35 50 96 136 137 190 40 54 72 101 69
103 -2 3 -26 -19 -52 -48z M6310 5629 c0 -11 109 -63 117 -56 5 6 -53 42 -90
56 -18 7 -27 7 -27 0z M10672 5520 c-52 -107 -102 -261 -101 -309 0 -14 17 26
38 89 21 63 57 157 80 209 58 130 44 139 -17 11z M6102 5553 c-23 -34 -34 -63
-24 -63 5 0 18 20 30 45 25 51 22 58 -6 18z M6008 5393 c-75 -127 -186 -378
-280 -633 -27 -74 -72 -187 -99 -252 -27 -64 -49 -120 -49 -124 0 -35 94 173
255 561 59 143 134 316 167 384 32 69 57 129 55 134 -1 4 -23 -27 -49 -70z
M6535 5385 c52 -73 97 -126 102 -121 7 7 -59 95 -98 131 l-33 30 29 -40z
M11050 4923 c0 -5 9 -18 20 -28 11 -10 20 -14 20 -8 0 5 -9 18 -20 28 -11 10
-20 14 -20 8z M6830 4431 c0 -74 4 -121 10 -121 6 0 10 45 10 114 0 66 -4 117
-10 121 -6 4 -10 -37 -10 -114z M5635 4278 c-392 -50 -733 -114 -714 -133 2
-2 36 3 74 11 122 26 286 52 456 74 236 29 313 42 324 51 11 11 -45 10 -140
-3z M7868 4063 c7 -3 16 -2 19 1 4 3 -2 6 -13 5 -11 0 -14 -3 -6 -6z M4330
4034 c-1225 -290 -1845 -448 -2035 -519 -154 -58 -410 -168 -399 -172 6 -2 51
13 100 33 280 114 417 158 849 273 187 50 572 145 810 201 357 83 790 192 800
201 13 13 -7 10 -125 -17z M8108 4053 c7 -3 16 -2 19 1 4 3 -2 6 -13 5 -11 0
-14 -3 -6 -6z M8350 4039 c25 -4 99 -7 165 -7 92 0 110 2 75 9 -25 4 -99 7
-165 7 -92 0 -110 -2 -75 -9z M10492 3810 c-59 -43 -358 -190 -385 -190 -13 0
-50 -9 -83 -21 -32 -11 -97 -23 -144 -26 -98 -6 -122 -18 -150 -72 -19 -38
-57 -61 -101 -61 -11 0 -19 -4 -19 -10 0 -15 57 -12 89 5 16 8 45 36 65 63
l36 49 74 6 c184 16 245 37 564 195 39 20 122 91 106 92 -6 0 -29 -13 -52 -30z
M10234 3766 c-10 -8 -15 -18 -11 -22 4 -4 15 0 24 9 22 21 12 31 -13 13z
M5363 3436 c14 -36 55 -213 66 -281 22 -137 32 -397 38 -985 l6 -595 -31 -88
c-18 -52 -26 -87 -19 -84 19 6 45 58 63 127 15 59 16 122 10 662 -7 639 -17
873 -42 1008 -16 89 -68 235 -86 246 -8 5 -9 1 -5 -10z M9335 3421 c-57 -27
-125 -89 -142 -130 -9 -20 -25 -49 -36 -66 l-20 -30 32 30 c17 16 34 40 37 52
9 35 108 119 167 142 37 14 45 20 27 20 -14 0 -43 -8 -65 -18z M9495 3430 c-7
-12 22 -12 50 0 17 7 15 9 -12 9 -17 1 -35 -3 -38 -9z M9440 3400 c-8 -5 -11
-12 -7 -16 4 -4 13 -2 19 4 15 15 7 24 -12 12z M10172 3379 c-24 -17 -41 -34
-38 -37 8 -7 86 46 86 58 0 14 -1 14 -48 -21z M5190 3398 c0 -4 11 -37 24 -72
32 -85 59 -211 91 -426 14 -96 38 -242 53 -325 27 -148 27 -156 26 -545 -1
-217 -6 -440 -12 -495 -6 -54 -9 -101 -7 -103 2 -2 12 9 22 24 17 26 18 59 17
494 0 289 -5 490 -12 530 -15 90 -47 319 -67 477 -25 204 -69 364 -115 423
-11 14 -20 22 -20 18z M4990 3366 c0 -4 14 -34 31 -67 97 -193 159 -529 189
-1024 13 -217 27 -368 46 -475 20 -118 19 -133 -5 -120 -11 5 -30 10 -43 10
-20 0 -19 -2 12 -21 51 -31 60 -48 57 -104 -2 -44 -6 -52 -34 -70 -41 -26 -42
-39 -1 -31 46 9 56 21 78 97 19 63 19 71 6 98 -31 58 -65 296 -96 673 -45 534
-91 783 -178 954 -27 53 -62 98 -62 80z M4730 3320 c0 -5 21 -42 46 -81 61
-93 126 -233 157 -339 61 -202 162 -725 182 -942 l7 -78 -56 0 c-32 0 -67 5
-78 11 -16 9 -19 8 -16 -2 6 -17 40 -27 96 -28 38 -1 42 -3 38 -23 -3 -13 -7
-52 -11 -88 -12 -134 -28 -212 -52 -247 -26 -39 -23 -59 8 -42 28 14 45 58 63
162 18 103 22 113 43 95 14 -11 15 -10 10 7 -4 11 -11 81 -17 155 -26 324
-148 934 -229 1150 -46 124 -191 343 -191 290z M10055 3278 l-40 -43 43 40
c39 36 47 45 39 45 -2 0 -21 -19 -42 -42z M9121 3264 c0 -11 3 -14 6 -6 3 7 2
16 -1 19 -3 4 -6 -2 -5 -13z M2065 3224 c-27 -7 -104 -25 -170 -39 -65 -14
-122 -28 -125 -32 -12 -13 132 9 238 37 116 30 167 50 127 49 -11 -1 -42 -7
-70 -15z M9940 3194 c-61 -50 -317 -224 -483 -328 -59 -38 -106 -71 -103 -73
18 -19 496 295 613 402 62 57 44 57 -27 -1z M4506 3163 c166 -251 288 -503
328 -675 31 -135 50 -451 31 -500 -14 -36 -50 -20 -117 52 -71 77 -90 84 -136
46 -16 -14 -53 -35 -83 -46 -61 -24 -156 -76 -164 -91 -13 -20 242 96 275 126
9 8 21 15 27 15 12 0 86 -78 102 -108 8 -15 25 -24 52 -28 39 -7 39 -7 33 -43
-3 -20 -20 -92 -39 -161 -45 -170 -47 -180 -35 -180 9 0 86 230 111 334 15 61
6 341 -15 476 -8 52 -27 133 -41 179 -53 177 -193 462 -283 577 -43 56 -79 76
-46 27z M1698 3143 c7 -3 16 -2 19 1 4 3 -2 6 -13 5 -11 0 -14 -3 -6 -6z
M9041 3134 c0 -11 3 -14 6 -6 3 7 2 16 -1 19 -3 4 -6 -2 -5 -13z M3488 3063
c7 -3 16 -2 19 1 4 3 -2 6 -13 5 -11 0 -14 -3 -6 -6z M3580 3005 c7 -8 19 -15
27 -15 13 0 13 3 3 15 -7 8 -19 15 -27 15 -13 0 -13 -3 -3 -15z M9020 3009 c0
-5 5 -7 10 -4 6 3 10 8 10 11 0 2 -4 4 -10 4 -5 0 -10 -5 -10 -11z M8435 2870
c-126 -30 -496 -96 -779 -140 -242 -37 -305 -50 -244 -50 35 0 485 56 645 81
204 31 570 128 483 127 -14 0 -61 -8 -105 -18z M880 2811 c-168 -68 -340 -152
-443 -217 -103 -66 -339 -245 -333 -252 4 -3 21 5 39 18 210 156 499 321 780
446 96 42 134 64 112 64 -6 0 -75 -26 -155 -59z M8418 2739 c-31 -17 -59 -37
-62 -45 -7 -19 -5 -18 34 11 19 14 41 25 49 25 9 0 27 9 41 20 39 30 3 24 -62
-11z M9163 2700 c-140 -48 -239 -106 -319 -187 -112 -112 -106 -123 13 -23
106 89 214 152 334 194 52 19 94 46 69 45 -8 0 -52 -13 -97 -29z M7298 2673
c6 -2 18 -2 25 0 6 3 1 5 -13 5 -14 0 -19 -2 -12 -5z M7238 2663 c7 -3 16 -2
19 1 4 3 -2 6 -13 5 -11 0 -14 -3 -6 -6z M8205 2638 c-22 -12 -35 -23 -28 -25
11 -4 93 33 93 42 0 10 -27 3 -65 -17z M1805 2613 c-55 -8 -105 -24 -105 -34
0 -6 4 -8 9 -5 4 3 73 11 152 17 174 13 216 29 74 27 -55 0 -113 -3 -130 -5z
M8030 2551 c-58 -27 -148 -67 -201 -90 -90 -39 -159 -87 -159 -111 0 -5 26 7
58 29 31 21 102 58 157 81 171 72 297 140 258 140 -4 0 -55 -22 -113 -49z
M9379 2570 c-10 -14 -42 -25 -114 -41 -96 -20 -201 -57 -191 -66 3 -3 44 6 93
20 48 14 111 28 138 32 29 4 59 15 72 27 14 13 30 19 43 15 22 -6 26 3 8 21
-17 17 -34 15 -49 -8z M8650 2475 c-52 -34 -268 -150 -480 -257 -401 -203
-464 -237 -456 -246 7 -7 588 281 765 380 154 86 248 145 270 172 24 28 -2 16
-99 -49z M1807 2510 c-48 -30 -61 -124 -27 -199 l20 -43 -22 7 c-85 26 -87 10
-3 -21 64 -24 202 -24 260 0 l40 16 -90 -6 -90 -5 43 26 c40 25 95 105 72 105
-5 0 -16 -13 -24 -28 -8 -16 -23 -35 -32 -43 -16 -13 -17 -12 -10 6 24 61 26
79 8 114 -29 59 -104 95 -145 71z m82 -35 c45 -23 54 -70 25 -131 -19 -40 -47
-58 -78 -50 -27 7 -42 36 -51 99 -6 41 -4 49 18 71 30 30 47 32 86 11z M1843
2462 c-32 -20 -38 -105 -11 -139 28 -35 88 18 88 77 0 50 -42 84 -77 62z
M2215 2492 c-16 -2 -34 -8 -39 -13 -12 -11 46 -11 84 0 23 6 23 8 5 12 -11 2
-33 3 -50 1z M4011 2464 c0 -11 3 -14 6 -6 3 7 2 16 -1 19 -3 4 -6 -2 -5 -13z
M4006 2403 c-3 -10 -10 -72 -16 -138 -16 -175 -41 -324 -57 -341 -33 -33 -91
0 -124 71 -22 48 -52 65 -110 65 -44 0 -166 -38 -232 -72 -70 -36 -25 -31 74
8 145 56 222 47 255 -31 18 -43 55 -72 105 -80 31 -5 39 -11 35 -23 -3 -10
-19 -68 -36 -131 -17 -63 -46 -148 -65 -188 -18 -40 -29 -73 -24 -73 12 0 57
98 93 204 34 97 60 217 87 389 29 190 39 420 15 340z M1020 2361 c20 -11 179
-21 185 -11 5 8 -92 20 -159 20 -27 -1 -36 -3 -26 -9z M7378 2265 c-3 -3 -42
-12 -88 -20 -94 -17 -220 -54 -220 -65 0 -4 19 -3 43 2 23 5 92 20 153 33 62
13 125 30 140 39 l29 15 -26 1 c-14 0 -28 -2 -31 -5z M1130 2116 c0 -3 18 -15
40 -26 22 -11 40 -22 40 -24 0 -2 -9 -24 -20 -49 -11 -25 -17 -52 -14 -61 8
-22 47 -30 73 -16 32 16 26 33 -9 25 -34 -7 -40 8 -16 40 14 19 15 19 35 1 26
-23 27 -14 4 21 -20 31 -15 29 51 -19 36 -26 101 -46 112 -35 3 3 -50 34 -118
70 -115 61 -178 87 -178 73z M2175 2029 c-11 -17 0 -20 21 -4 17 13 17 14 2
15 -9 0 -20 -5 -23 -11z M2340 2030 c-24 -15 2 -19 142 -22 142 -3 155 7 27
22 -105 12 -150 12 -169 0z M528 1983 c6 -2 18 -2 25 0 6 3 1 5 -13 5 -14 0
-19 -2 -12 -5z M2455 1980 c-16 -7 -14 -9 15 -9 19 0 42 4 50 9 11 7 8 10 -15
9 -16 0 -39 -4 -50 -9z M618 1973 c7 -3 16 -2 19 1 4 3 -2 6 -13 5 -11 0 -14
-3 -6 -6z M5590 1969 c0 -22 44 -148 68 -194 11 -22 37 -56 58 -75 36 -34 37
-34 17 -5 -27 40 -74 136 -103 210 -25 65 -40 89 -40 64z M2225 1943 c-66 -13
-121 -26 -124 -29 -15 -15 21 -15 107 -1 118 20 172 35 172 47 0 14 -17 12
-155 -17z M1128 1891 c2 -21 -1 -41 -6 -45 -6 -3 -48 5 -94 19 -46 15 -90 28
-98 31 -10 2 -8 -1 4 -11 24 -18 153 -61 225 -75 73 -14 93 -1 42 28 -22 13
-46 37 -55 57 -9 19 -18 35 -19 35 -1 0 -1 -17 1 -39z M1130 1340 c0 -12 84
-43 104 -38 24 4 20 22 -7 29 -48 13 -97 17 -97 9z M5884 1325 c11 -8 25 -15
30 -15 6 0 2 7 -8 15 -11 8 -25 15 -30 15 -6 0 -2 -7 8 -15z M5996 1271 c5 -5
86 -43 179 -84 94 -41 233 -104 309 -141 77 -37 144 -65 150 -63 22 7 -361
190 -564 268 -81 32 -89 34 -74 20z M5465 1129 c-61 -18 -466 -99 -670 -133
-397 -66 -753 -107 -1088 -127 -202 -12 -655 -1 -892 21 -160 15 -310 23 -305
17 16 -18 502 -60 876 -77 290 -13 439 -2 919 66 512 72 1164 199 1198 233 13
13 3 13 -38 0z M1925 1070 c17 -11 37 -20 45 -20 8 0 2 9 -15 20 -16 11 -37
20 -45 20 -8 0 -2 -9 15 -20z M2028 1023 c7 -3 16 -2 19 1 4 3 -2 6 -13 5 -11
0 -14 -3 -6 -6z M2110 1000 c0 -12 28 -25 36 -17 3 3 -4 10 -15 17 -15 7 -21
7 -21 0z M2235 956 c22 -8 51 -15 65 -15 44 -1 -2 19 -57 24 l-48 5 40 -14z
M2408 923 c7 -3 16 -2 19 1 4 3 -2 6 -13 5 -11 0 -14 -3 -6 -6z M1955 1521
c22 -25 75 -56 74 -44 0 11 -52 51 -75 60 -18 6 -18 5 1 -16z M10426 194 c-10
-47 -15 -88 -12 -91 5 -6 9 7 30 110 7 37 10 67 6 67 -4 0 -15 -39 -24 -86z
M10740 270 c0 -5 5 -10 10 -10 6 0 10 5 10 10 0 6 -4 10 -10 10 -5 0 -10 -4
-10 -10z M11286 194 c-10 -47 -15 -88 -12 -91 5 -6 9 7 30 110 7 37 10 67 6
67 -4 0 -15 -39 -24 -86z M11366 269 c-3 -8 -10 -41 -16 -74 -6 -33 -14 -68
-16 -77 -3 -10 -1 -18 3 -18 10 0 46 171 38 178 -2 3 -7 -1 -9 -9z M10129 241
c-38 -38 -41 -101 -7 -125 29 -20 79 -20 104 0 18 14 18 15 1 10 -53 -17 -69
-17 -92 -2 -69 45 21 166 94 126 12 -6 21 -7 21 -1 0 12 -25 21 -62 21 -19 0
-39 -10 -59 -29z M11130 189 c-28 -45 -49 -83 -47 -85 2 -3 12 7 21 21 14 21
24 25 66 25 43 0 50 -3 50 -19 0 -11 5 -23 10 -26 6 -3 10 -3 10 1 0 20 -44
164 -51 164 -4 0 -30 -37 -59 -81z m75 4 l7 -33 -42 0 c-42 0 -42 0 -28 23 8
12 21 32 29 44 15 25 22 18 34 -34z M10280 210 c-22 -22 -27 -79 -8 -98 19
-19 66 -14 88 8 22 22 27 79 8 98 -19 19 -66 14 -88 -8z m71 0 c25 -14 25 -54
-1 -80 -23 -23 -33 -24 -61 -10 -25 14 -25 54 1 80 23 23 33 24 61 10z M10490
210 c-22 -22 -27 -79 -8 -98 19 -19 66 -14 88 8 22 22 27 79 8 98 -19 19 -66
14 -88 -8z m71 0 c25 -14 25 -54 -1 -80 -23 -23 -33 -24 -61 -10 -25 14 -25
54 1 80 23 23 33 24 61 10z M10636 204 c-3 -16 -8 -47 -11 -69 -8 -51 10 -26
19 27 5 27 15 42 34 53 18 10 22 14 10 15 -9 0 -20 -5 -24 -11 -5 -8 -9 -8
-14 1 -5 8 -10 3 -14 -16z M10737 223 c-2 -4 -7 -26 -11 -48 -4 -22 -9 -48
-12 -57 -3 -10 -1 -18 4 -18 4 0 14 28 20 62 11 58 10 81 -1 61z M10795 220
c-1 -3 -5 -23 -9 -45 -4 -22 -9 -48 -12 -57 -3 -10 -1 -18 4 -18 5 0 13 20 17
45 7 53 44 87 74 68 17 -11 19 -28 8 -80 -4 -18 -3 -33 2 -33 16 0 24 99 11
115 -12 14 -87 18 -95 5z M10960 210 c-22 -22 -27 -79 -8 -98 7 -7 24 -12 38
-12 14 0 31 5 38 12 9 9 12 8 12 -5 0 -9 -12 -24 -26 -34 -21 -13 -32 -15 -55
-6 -16 6 -29 8 -29 3 0 -24 81 -27 102 -2 18 19 50 162 37 162 -5 0 -9 -5 -9
-10 0 -7 -6 -7 -19 0 -30 16 -59 12 -81 -10z m71 0 c29 -16 25 -65 -6 -86 -56
-37 -103 28 -55 76 23 23 33 24 61 10z M11461 211 c-23 -23 -28 -80 -9 -99 19
-19 88 -13 88 9 0 5 -11 4 -24 -2 -54 -25 -89 38 -46 81 23 23 33 24 62 9 16
-9 19 -8 16 3 -8 22 -64 22 -87 -1z M11590 210 c-22 -22 -27 -79 -8 -98 19
-19 66 -14 88 8 22 22 27 79 8 98 -19 19 -66 14 -88 -8z m71 0 c25 -14 25 -54
-1 -80 -23 -23 -33 -24 -61 -10 -25 14 -25 54 1 80 23 23 33 24 61 10z M11736
201 c-3 -14 -8 -44 -11 -66 -8 -51 10 -26 19 27 8 41 35 63 66 53 22 -7 24
-21 11 -77 -5 -22 -5 -38 0 -38 5 0 9 6 9 13 0 68 51 125 85 97 15 -13 15 -35
-1 -92 -3 -10 -1 -18 4 -18 6 0 13 23 17 50 9 63 -5 84 -49 76 -17 -4 -35 -6
-41 -6 -101 8 -104 7 -109 -19z M11380 110 c0 -5 5 -10 10 -10 6 0 10 5 10 10
0 6 -4 10 -10 10 -5 0 -10 -4 -10 -10z"/>
</g>
</svg>
